# Blender 4.1.1
# www.blender.org
mtllib shed.mtl
o House
v -1.224504 -1.287093 3.319365
v -1.224504 1.287093 3.319365
v -1.224504 -1.287093 -3.319365
v -1.224504 1.287093 -3.319365
v 1.224504 -1.287093 3.319365
v 1.224504 1.287093 3.319365
v 1.224504 -1.287093 -3.319365
v 1.224504 1.287093 -3.319365
v 0.000000 -1.287093 -3.319365
v 0.000000 1.287093 -3.319365
v 0.000000 -1.287093 3.319365
v 0.000000 1.287093 3.319365
v 1.224504 1.287093 3.319365
v 1.224504 1.287093 -3.319365
v 1.224504 1.287093 3.319365
v 1.224504 1.287093 -3.319365
v 1.224504 1.287093 3.319365
v 1.224504 1.287093 -3.319365
v 1.224504 1.287093 3.319365
v 1.224504 1.287093 -3.319365
v 0.000000 2.620014 3.319365
v -1.224504 1.287093 3.319365
v -1.224504 1.287093 -3.319365
v 0.000000 2.620014 3.319365
v -1.224504 1.287093 -3.319366
v 1.224504 1.287093 -3.319366
v 0.000000 1.287093 -3.319366
v 1.224504 1.287093 -3.319366
v 1.224504 1.287093 -3.319366
v 1.224504 1.287093 -3.319366
v 1.224504 1.287093 -3.319366
v 0.000000 2.620014 -3.319366
v -1.224504 1.287093 -3.319366
v 0.000000 2.620014 -3.319366
vn -1.0000 -0.0000 -0.0000
vn -0.0000 -0.0000 -1.0000
vn 1.0000 -0.0000 -0.0000
vn -0.0000 -0.0000 1.0000
vn -0.0000 1.0000 -0.0000
vt 0.272785 0.333333
vt 0.272786 0.000000
vt 0.996745 0.000000
vt 0.996745 0.333333
vt 0.500000 0.666667
vt 0.500000 0.333333
vt 0.666667 0.333333
vt 0.666667 0.666667
vt 0.250651 0.333333
vt 0.250651 0.000000
vt 1.000000 0.000000
vt 1.000000 0.333333
vt 0.833333 0.666667
vt 0.833333 0.333333
vt 1.000000 0.333333
vt 1.000000 0.666667
vt 0.166667 0.505934
vt 0.000000 0.505934
vt 0.000000 0.172601
vt 0.166667 0.172601
vt 0.333333 0.505934
vt 0.333333 0.172601
vt 0.666667 0.666667
vt 0.666667 0.333333
vt 0.333333 0.666667
vt 0.333333 0.333333
vt 0.166667 0.000000
vt 0.322879 0.174132
vt 0.322787 0.173966
vt 0.161606 0.000907
vt 0.161526 0.001168
vt -0.005790 0.168303
vt -0.005790 0.168304
vt -0.005790 0.168304
vt -0.005527 0.168374
vt 0.158630 0.171170
s 0
usemtl Wood
f 1/1/1 2/2/1 4/3/1 3/4/1
f 9/5/2 10/6/2 8/7/2 7/8/2
f 7/9/3 8/10/3 6/11/3 5/12/3
f 11/13/4 12/14/4 2/15/4 1/16/4
f 10/17/5 4/18/5 2/19/5 12/20/5
f 8/21/5 10/17/5 12/20/5 6/22/5
f 5/23/4 6/24/4 12/14/4 11/13/4
f 3/25/2 4/26/2 10/6/2 9/5/2
f 6/22/4 13/22/4 15/22/4 17/22/4 19/22/4 21/27/4 24/27/4 22/19/4 2/19/4 12/20/4
f 8/18/5 6/18/5 13/18/5 14/18/5
f 14/18/5 13/18/5 15/18/5 16/18/5
f 16/18/5 15/18/5 17/18/5 18/18/5
f 18/18/5 17/18/5 19/18/5 20/18/5
f 2/18/5 4/18/5 23/18/5 22/18/5
f 25/28/2 33/29/2 34/30/2 32/31/2 31/32/2 30/32/2 29/33/2 28/34/2 26/35/2 27/36/2
o Roof
v 1.224504 1.287093 3.319365
v 1.224504 1.287093 -3.319365
v 0.000000 2.620014 3.319365
v 0.000000 2.620014 -3.319365
v -1.224504 1.287093 3.319365
v -1.224504 1.287093 -3.319365
v 0.000000 2.620014 3.319365
v 0.000000 2.620014 -3.319365
v 1.224504 1.287093 3.319365
v 1.224504 1.287093 -3.319365
v 1.224504 1.287093 3.319365
v 1.224504 1.287093 -3.319365
v 1.224504 1.287093 3.319365
v 1.224504 1.287093 -3.319365
v 0.000000 2.620014 3.319365
v 0.000000 2.620014 -3.319365
v -1.224504 1.287093 3.319365
v -1.224504 1.287093 -3.319365
v 0.000000 2.620014 3.319365
v 0.000000 2.620014 -3.319365
v 1.224504 1.287093 3.319365
v 1.224504 1.287093 -3.319365
v 1.224504 1.287093 3.319365
v 1.224504 1.287093 -3.319365
vn 0.7364 0.6765 -0.0000
vn -0.7364 0.6765 -0.0000
vn -0.0000 1.0000 -0.0000
vt 0.003372 0.068394
vt 0.003372 0.388308
vt 0.999951 0.388308
vt 0.999951 0.068394
vt 0.001856 0.049020
vt 0.001856 0.368933
vt 0.997545 0.368933
vt 0.997545 0.049020
s 0
usemtl Metal
f 36/37/6 38/38/6 37/39/6 35/40/6
f 39/41/7 41/42/7 42/43/7 40/44/7
f 35/40/8 43/40/8 44/37/8 36/37/8
f 43/40/8 45/40/8 46/37/8 44/37/8
f 48/37/6 50/38/6 49/39/6 47/40/6
f 51/41/7 53/42/7 54/43/7 52/44/7
f 47/40/8 55/40/8 56/37/8 48/37/8
f 55/40/8 57/40/8 58/37/8 56/37/8
o Floor
v -1.224504 -1.287093 3.319365
v -1.224504 -1.287093 -3.319365
v 1.224504 -1.287093 3.319365
v 1.224504 -1.287093 -3.319365
v 0.000000 -1.287093 -3.319365
v 0.000000 -1.287093 3.319365
vn -0.0000 -1.0000 -0.0000
vt 0.500000 1.000000
vt 0.333333 1.000000
vt 0.333333 0.666667
vt 0.500000 0.666667
vt 0.666667 1.000000
vt 0.666667 0.666667
s 0
usemtl Material
f 63/45/9 62/46/9 61/47/9 64/48/9
f 60/49/9 63/45/9 64/48/9 59/50/9
o Window.002
v 1.036810 1.493778 2.777393
v 0.140456 2.463527 2.777393
v 1.036810 1.493778 1.725288
v 0.140456 2.463527 1.725288
v 0.977145 1.574739 2.697790
v 0.216481 2.397687 2.697790
v 0.977145 1.574739 1.804891
v 0.216481 2.397687 1.804891
v 0.147146 2.469711 1.725288
v 1.043500 1.499962 1.725288
v 1.043500 1.499962 2.777393
v 0.147146 2.469711 2.777393
v 0.215629 2.393959 1.806601
v 0.973360 1.574183 1.806601
v 0.973360 1.574183 2.696080
v 0.215629 2.393959 2.696080
v 1.036369 1.499528 2.773813
v 0.146154 2.462636 2.773813
v 1.036369 1.499528 1.728868
v 0.146154 2.462636 1.728868
v 0.974629 1.569198 2.699660
v 0.210759 2.395614 2.699660
v 0.974629 1.569198 1.803021
v 0.210759 2.395614 1.803021
v 0.147586 2.463960 1.728868
v 1.037802 1.500852 1.728868
v 1.037802 1.500852 2.773813
v 0.147586 2.463960 2.773813
v 0.209931 2.394849 1.803021
v 0.973801 1.568432 1.803021
v 0.973801 1.568432 2.699660
v 0.209931 2.394849 2.699660
vn -0.7344 -0.6788 -0.0000
vn -0.0000 -0.0000 -1.0000
vn 0.3499 0.3234 -0.8792
vn -0.0000 -0.0000 1.0000
vn 0.6788 -0.7343 -0.0000
vn -0.6788 0.7344 -0.0000
vn 0.7341 0.6786 -0.0255
vn 0.7480 0.6637 -0.0000
vn 0.7204 0.6935 -0.0000
vn 0.7341 0.6786 0.0255
vn 0.7344 0.6788 -0.0000
vn -0.1454 0.9894 -0.0000
vn 0.9749 -0.2227 -0.0000
vn 0.3499 0.3234 0.8792
vn 0.6788 -0.7344 -0.0000
vt 0.375000 0.000000
vt 0.625000 0.000000
vt 0.625000 0.250000
vt 0.375000 0.250000
vt 0.625000 0.500000
vt 0.375000 0.500000
vt 0.607259 0.732259
vt 0.392741 0.732259
vt 0.375000 0.750000
vt 0.625000 0.750000
vt 0.625000 1.000000
vt 0.375000 1.000000
vt 0.125000 0.500000
vt 0.125000 0.750000
vt 0.875000 0.500000
vt 0.875000 0.750000
vt 0.607259 0.517741
vt 0.392741 0.517741
s 0
usemtl Material.001
f 65/51/10 66/52/10 68/53/10 67/54/10
f 67/54/11 68/53/11 73/55/11 74/56/11
f 70/57/12 69/58/12 79/58/12 80/57/12
f 75/59/13 76/60/13 66/61/13 65/62/13
f 67/63/14 74/56/14 75/59/14 65/64/14
f 73/55/15 68/65/15 66/66/15 76/60/15
f 72/67/16 71/68/16 74/56/16 73/55/16
f 71/68/17 69/58/17 75/59/17 74/56/17
f 70/57/18 72/67/18 73/55/18 76/60/18
f 69/58/19 70/57/19 76/60/19 75/59/19
f 78/68/20 77/67/20 80/57/20 79/58/20
f 69/58/21 71/68/21 78/68/21 79/58/21
f 72/67/22 70/57/22 80/57/22 77/67/22
f 71/68/23 72/67/23 77/67/23 78/68/23
f 81/51/20 83/54/20 84/53/20 82/52/20
f 83/54/13 90/56/13 89/55/13 84/53/13
f 86/57/13 96/57/13 95/58/13 85/58/13
f 91/59/11 81/62/11 82/61/11 92/60/11
f 83/63/15 81/64/15 91/59/15 90/56/15
f 89/55/24 92/60/24 82/66/24 84/65/24
f 88/67/10 89/55/10 90/56/10 87/68/10
f 87/68/10 90/56/10 91/59/10 85/58/10
f 86/57/10 92/60/10 89/55/10 88/67/10
f 85/58/10 91/59/10 92/60/10 86/57/10
f 94/68/10 95/58/10 96/57/10 93/67/10
f 85/58/24 95/58/24 94/68/24 87/68/24
f 88/67/15 93/67/15 96/57/15 86/57/15
f 87/68/11 94/68/11 93/67/11 88/67/11
o Window.004
v 1.223490 -1.291987 0.170594
v 1.223490 0.707629 0.170594
v 1.223490 -1.291987 2.182813
v 1.223490 0.707629 2.182813
v 1.233469 -1.146735 0.316741
v 1.233470 0.562377 0.316741
v 1.233469 -1.146735 2.036666
v 1.233470 0.562377 2.036666
v 1.232094 0.707629 2.182813
v 1.232094 -1.291987 2.182813
v 1.232094 -1.291987 0.170595
v 1.232094 0.707629 0.170595
v 1.229927 0.561217 2.035506
v 1.229927 -1.145575 2.035506
v 1.229927 -1.145575 0.317901
v 1.229927 0.561217 0.317901
v 1.225918 -1.289559 0.173023
v 1.225919 0.705201 0.173023
v 1.225918 -1.289559 2.180385
v 1.225919 0.705201 2.180385
v 1.229666 -1.148003 0.315473
v 1.229666 0.563645 0.315473
v 1.229666 -1.148003 2.037935
v 1.229666 0.563645 2.037935
v 1.229666 0.705201 2.180385
v 1.229665 -1.289559 2.180385
v 1.229665 -1.289559 0.173023
v 1.229666 0.705201 0.173023
v 1.227499 0.563645 2.037935
v 1.227499 -1.148003 2.037935
v 1.227499 -1.148003 0.315473
v 1.227499 0.563645 0.315473
vn -1.0000 -0.0000 -0.0000
vn -0.0000 -0.0000 1.0000
vn 0.3112 -0.0000 0.9503
vn -0.0000 -0.0000 -1.0000
vn -0.0000 -1.0000 -0.0000
vn -0.0000 1.0000 -0.0000
vn 1.0000 -0.0000 0.0094
vn 1.0000 -0.0095 -0.0000
vn 1.0000 0.0095 -0.0000
vn 1.0000 -0.0000 -0.0094
vn 1.0000 -0.0000 -0.0000
vn 0.3112 0.9503 -0.0000
vn 0.3112 -0.9503 -0.0000
vn 0.3112 -0.0000 -0.9503
vt 0.375000 0.000000
vt 0.625000 0.000000
vt 0.625000 0.250000
vt 0.375000 0.250000
vt 0.625000 0.500000
vt 0.375000 0.500000
vt 0.607259 0.732259
vt 0.392741 0.732259
vt 0.375000 0.750000
vt 0.625000 0.750000
vt 0.625000 1.000000
vt 0.375000 1.000000
vt 0.125000 0.500000
vt 0.125000 0.750000
vt 0.875000 0.500000
vt 0.875000 0.750000
vt 0.607259 0.517741
vt 0.392741 0.517741
s 0
usemtl Material.001
f 97/69/25 99/72/25 100/71/25 98/70/25
f 99/72/26 106/74/26 105/73/26 100/71/26
f 102/75/27 112/75/27 111/76/27 101/76/27
f 107/77/28 97/80/28 98/79/28 108/78/28
f 99/81/29 97/82/29 107/77/29 106/74/29
f 105/73/30 108/78/30 98/84/30 100/83/30
f 104/85/31 105/73/31 106/74/31 103/86/31
f 103/86/32 106/74/32 107/77/32 101/76/32
f 102/75/33 108/78/33 105/73/33 104/85/33
f 101/76/34 107/77/34 108/78/34 102/75/34
f 110/86/35 111/76/35 112/75/35 109/85/35
f 101/76/36 111/76/36 110/86/36 103/86/36
f 104/85/37 109/85/37 112/75/37 102/75/37
f 103/86/38 110/86/38 109/85/38 104/85/38
f 113/69/35 114/70/35 116/71/35 115/72/35
f 115/72/28 116/71/28 121/73/28 122/74/28
f 118/75/28 117/76/28 127/76/28 128/75/28
f 123/77/26 124/78/26 114/79/26 113/80/26
f 115/81/30 122/74/30 123/77/30 113/82/30
f 121/73/29 116/83/29 114/84/29 124/78/29
f 120/85/25 119/86/25 122/74/25 121/73/25
f 119/86/25 117/76/25 123/77/25 122/74/25
f 118/75/25 120/85/25 121/73/25 124/78/25
f 117/76/25 118/75/25 124/78/25 123/77/25
f 126/86/25 125/85/25 128/75/25 127/76/25
f 117/76/29 119/86/29 126/86/29 127/76/29
f 120/85/30 118/75/30 128/75/30 125/85/30
f 119/86/26 120/85/26 125/85/26 126/86/26
o Window.001
v 1.036810 1.493778 0.052039
v 0.140456 2.463527 0.052039
v 1.036810 1.493778 -1.000067
v 0.140456 2.463527 -1.000067
v 0.977145 1.574739 -0.027564
v 0.216481 2.397687 -0.027564
v 0.977145 1.574739 -0.920464
v 0.216481 2.397687 -0.920464
v 0.147146 2.469711 -1.000066
v 1.043500 1.499962 -1.000066
v 1.043500 1.499962 0.052039
v 0.147146 2.469711 0.052039
v 0.215629 2.393959 -0.918753
v 0.973360 1.574183 -0.918753
v 0.973360 1.574183 -0.029274
v 0.215629 2.393959 -0.029274
v 1.036369 1.499528 0.048459
v 0.146154 2.462636 0.048459
v 1.036369 1.499528 -0.996486
v 0.146154 2.462636 -0.996486
v 0.974629 1.569198 -0.025694
v 0.210759 2.395614 -0.025694
v 0.974629 1.569198 -0.922333
v 0.210759 2.395614 -0.922333
v 0.147586 2.463960 -0.996486
v 1.037802 1.500852 -0.996486
v 1.037802 1.500852 0.048459
v 0.147586 2.463960 0.048459
v 0.209931 2.394849 -0.922333
v 0.973801 1.568432 -0.922333
v 0.973801 1.568432 -0.025694
v 0.209931 2.394849 -0.025694
vn -0.7344 -0.6788 -0.0000
vn -0.0000 -0.0000 -1.0000
vn 0.3499 0.3234 -0.8792
vn -0.0000 -0.0000 1.0000
vn 0.6788 -0.7343 -0.0000
vn -0.6788 0.7344 -0.0000
vn 0.7341 0.6786 -0.0255
vn 0.7480 0.6637 -0.0000
vn 0.7204 0.6935 -0.0000
vn 0.7341 0.6786 0.0255
vn 0.7344 0.6788 -0.0000
vn -0.1454 0.9894 -0.0000
vn 0.9749 -0.2227 -0.0000
vn 0.3499 0.3234 0.8792
vn 0.6788 -0.7344 -0.0000
vt 0.375000 0.000000
vt 0.625000 0.000000
vt 0.625000 0.250000
vt 0.375000 0.250000
vt 0.625000 0.500000
vt 0.375000 0.500000
vt 0.607259 0.732259
vt 0.392741 0.732259
vt 0.375000 0.750000
vt 0.625000 0.750000
vt 0.625000 1.000000
vt 0.375000 1.000000
vt 0.125000 0.500000
vt 0.125000 0.750000
vt 0.875000 0.500000
vt 0.875000 0.750000
vt 0.607259 0.517741
vt 0.392741 0.517741
s 0
usemtl Material.001
f 129/87/39 130/88/39 132/89/39 131/90/39
f 131/90/40 132/89/40 137/91/40 138/92/40
f 134/93/41 133/94/41 143/94/41 144/93/41
f 139/95/42 140/96/42 130/97/42 129/98/42
f 131/99/43 138/92/43 139/95/43 129/100/43
f 137/91/44 132/101/44 130/102/44 140/96/44
f 136/103/45 135/104/45 138/92/45 137/91/45
f 135/104/46 133/94/46 139/95/46 138/92/46
f 134/93/47 136/103/47 137/91/47 140/96/47
f 133/94/48 134/93/48 140/96/48 139/95/48
f 142/104/49 141/103/49 144/93/49 143/94/49
f 133/94/50 135/104/50 142/104/50 143/94/50
f 136/103/51 134/93/51 144/93/51 141/103/51
f 135/104/52 136/103/52 141/103/52 142/104/52
f 145/87/49 147/90/49 148/89/49 146/88/49
f 147/90/42 154/92/42 153/91/42 148/89/42
f 150/93/42 160/93/42 159/94/42 149/94/42
f 155/95/40 145/98/40 146/97/40 156/96/40
f 147/99/44 145/100/44 155/95/44 154/92/44
f 153/91/53 156/96/53 146/102/53 148/101/53
f 152/103/39 153/91/39 154/92/39 151/104/39
f 151/104/39 154/92/39 155/95/39 149/94/39
f 150/93/39 156/96/39 153/91/39 152/103/39
f 149/94/39 155/95/39 156/96/39 150/93/39
f 158/104/39 159/94/39 160/93/39 157/103/39
f 149/94/53 159/94/53 158/104/53 151/104/53
f 152/103/44 157/103/44 160/93/44 150/93/44
f 151/104/40 158/104/40 157/103/40 152/103/40
o Window.003
v 1.223779 -1.291987 -2.877060
v 1.223779 0.707629 -2.877060
v 1.223779 -1.291987 -1.663172
v 1.223779 0.707629 -1.663172
v 1.233758 -1.146735 -2.730914
v 1.233759 0.562377 -2.730914
v 1.233758 -1.146735 -1.809319
v 1.233759 0.562377 -1.809319
v 1.232383 0.707629 -1.663172
v 1.232382 -1.291987 -1.663172
v 1.232382 -1.291987 -2.877060
v 1.232383 0.707629 -2.877060
v 1.230216 0.561217 -1.810479
v 1.230216 -1.145575 -1.810479
v 1.230216 -1.145575 -2.729754
v 1.230216 0.561217 -2.729754
v 1.226207 -1.289559 -2.874632
v 1.226207 0.705201 -2.874632
v 1.226207 -1.289559 -1.665601
v 1.226207 0.705201 -1.665601
v 1.229954 -1.148003 -2.732182
v 1.229955 0.563645 -2.732182
v 1.229954 -1.148003 -1.808051
v 1.229955 0.563645 -1.808051
v 1.229955 0.705201 -1.665601
v 1.229954 -1.289559 -1.665601
v 1.229954 -1.289559 -2.874632
v 1.229955 0.705201 -2.874632
v 1.227788 0.563645 -1.808051
v 1.227788 -1.148003 -1.808051
v 1.227788 -1.148003 -2.732182
v 1.227788 0.563645 -2.732182
vn -1.0000 -0.0000 -0.0000
vn -0.0000 -0.0000 1.0000
vn 0.3112 -0.0000 0.9503
vn -0.0000 -0.0000 -1.0000
vn -0.0000 -1.0000 -0.0000
vn -0.0000 1.0000 -0.0000
vn 1.0000 -0.0000 0.0094
vn 1.0000 -0.0095 -0.0000
vn 1.0000 0.0095 -0.0000
vn 1.0000 -0.0000 -0.0094
vn 1.0000 -0.0000 -0.0000
vn 0.3112 0.9503 -0.0000
vn 0.3112 -0.9503 -0.0000
vn 0.3112 -0.0000 -0.9503
vt 0.375000 0.000000
vt 0.625000 0.000000
vt 0.625000 0.250000
vt 0.375000 0.250000
vt 0.625000 0.500000
vt 0.375000 0.500000
vt 0.607259 0.732259
vt 0.392741 0.732259
vt 0.375000 0.750000
vt 0.625000 0.750000
vt 0.625000 1.000000
vt 0.375000 1.000000
vt 0.125000 0.500000
vt 0.125000 0.750000
vt 0.875000 0.500000
vt 0.875000 0.750000
vt 0.607259 0.517741
vt 0.392741 0.517741
s 0
usemtl Material.001
f 161/105/54 163/108/54 164/107/54 162/106/54
f 163/108/55 170/110/55 169/109/55 164/107/55
f 166/111/56 176/111/56 175/112/56 165/112/56
f 171/113/57 161/116/57 162/115/57 172/114/57
f 163/117/58 161/118/58 171/113/58 170/110/58
f 169/109/59 172/114/59 162/120/59 164/119/59
f 168/121/60 169/109/60 170/110/60 167/122/60
f 167/122/61 170/110/61 171/113/61 165/112/61
f 166/111/62 172/114/62 169/109/62 168/121/62
f 165/112/63 171/113/63 172/114/63 166/111/63
f 174/122/64 175/112/64 176/111/64 173/121/64
f 165/112/65 175/112/65 174/122/65 167/122/65
f 168/121/66 173/121/66 176/111/66 166/111/66
f 167/122/67 174/122/67 173/121/67 168/121/67
f 177/105/64 178/106/64 180/107/64 179/108/64
f 179/108/57 180/107/57 185/109/57 186/110/57
f 182/111/57 181/112/57 191/112/57 192/111/57
f 187/113/55 188/114/55 178/115/55 177/116/55
f 179/117/59 186/110/59 187/113/59 177/118/59
f 185/109/58 180/119/58 178/120/58 188/114/58
f 184/121/54 183/122/54 186/110/54 185/109/54
f 183/122/54 181/112/54 187/113/54 186/110/54
f 182/111/54 184/121/54 185/109/54 188/114/54
f 181/112/54 182/111/54 188/114/54 187/113/54
f 190/122/54 189/121/54 192/111/54 191/112/54
f 181/112/58 183/122/58 190/122/58 191/112/58
f 184/121/59 182/111/59 192/111/59 189/121/59
f 183/122/55 184/121/55 189/121/55 190/122/55
